<svg width="18" height="18" viewBox="0 0 18 18" fill="none" xmlns="http://www.w3.org/2000/svg">
<path d="M17.3337 5.03343C17.3343 4.92376 17.3133 4.81504 17.2718 4.71351C17.2303 4.61198 17.1692 4.51963 17.092 4.44176L13.5587 0.908429C13.4808 0.831194 13.3885 0.77009 13.2869 0.728619C13.1854 0.687149 13.0767 0.666128 12.967 0.666762C12.8573 0.666128 12.7486 0.687149 12.6471 0.728619C12.5456 0.77009 12.4532 0.831194 12.3753 0.908429L10.017 3.26676L0.908673 12.3751C0.831438 12.453 0.770334 12.5453 0.728863 12.6468C0.687393 12.7484 0.666372 12.8571 0.667006 12.9668V16.5001C0.667006 16.7211 0.754803 16.9331 0.911084 17.0894C1.06736 17.2456 1.27933 17.3334 1.50034 17.3334H5.03367C5.15028 17.3398 5.26692 17.3215 5.37602 17.2799C5.48513 17.2383 5.58427 17.1742 5.66701 17.0918L14.7253 7.98343L17.092 5.66676C17.1681 5.586 17.23 5.49304 17.2753 5.39176C17.2834 5.32534 17.2834 5.25819 17.2753 5.19176C17.2792 5.15297 17.2792 5.11389 17.2753 5.0751L17.3337 5.03343ZM4.69201 15.6668H2.33367V13.3084L10.6087 5.03343L12.967 7.39176L4.69201 15.6668ZM14.142 6.21676L11.7837 3.85843L12.967 2.68343L15.317 5.03343L14.142 6.21676Z" fill="#979797"/>
</svg>
