<svg width="24" height="24" viewBox="0 0 24 24" fill="none" xmlns="http://www.w3.org/2000/svg">
<circle cx="12" cy="12" r="12" fill="#A5A8A9"/>
<path d="M12.1945 12.3947L10.9463 16.6066H17.6227C17.7303 16.6069 17.8316 16.6577 17.8961 16.7439C17.9606 16.8301 17.9808 16.9416 17.9507 17.0449L17.3701 19.0449C17.3132 19.2412 17.1333 19.3762 16.9289 19.3758H6.73152L8.45576 13.5529L6.54865 14.1335L6.96954 12.7721L8.87956 12.1915L11.3005 4.01155C11.3552 3.81456 11.5343 3.6781 11.7388 3.67774H14.3222C14.4297 3.67735 14.5311 3.72744 14.5962 3.813C14.6612 3.89857 14.6823 4.0097 14.6531 4.11315L12.6212 11.0304L14.5283 10.4499L14.119 11.8345L12.1945 12.3947Z" fill="white"/>
</svg>
