<svg width="34" height="34" viewBox="0 0 34 34" fill="none" xmlns="http://www.w3.org/2000/svg">
<circle cx="17" cy="17" r="17" fill="#22A079"/>
<path fill-rule="evenodd" clip-rule="evenodd" d="M19.3009 11.3913V14.2165L19.3039 14.2196C24.4584 14.4611 28.3333 15.5038 28.3333 16.7482C28.3333 17.9957 24.4584 19.0352 19.3039 19.2768V28.3333H14.7111V19.2768C9.55058 19.0322 5.66666 17.9926 5.66666 16.7451C5.66666 15.4976 9.54757 14.4581 14.7111 14.2165V11.3913H8.35807V7.08325H25.6539V11.3913H19.3009ZM19.3009 18.5002V18.5032V18.5063C23.8517 18.2984 27.249 17.4912 27.249 16.525C27.249 15.5588 23.8547 14.7516 19.3009 14.5437V17.6991C19.1687 17.7113 18.4598 17.7725 17.042 17.7725C15.8616 17.7725 15.0055 17.7205 14.7081 17.6991V14.5406C10.1483 14.7455 6.74202 15.5557 6.74202 16.5219C6.74202 17.4912 10.1453 18.2984 14.7081 18.5032V18.5002C15.0025 18.5154 15.8345 18.5491 17.021 18.5491C18.5049 18.5491 19.1717 18.5093 19.3009 18.5002Z" fill="white"/>
</svg>
