<svg width="34" height="34" viewBox="0 0 34 34" fill="none" xmlns="http://www.w3.org/2000/svg">
<circle cx="17" cy="17" r="17" fill="#F7931A"/>
<path fill-rule="evenodd" clip-rule="evenodd" d="M24.0389 14.7792C24.3926 12.3974 22.5923 11.1171 20.1307 10.263L20.9292 7.0366L18.9796 6.54717L18.2021 9.6885C17.6896 9.55985 17.1632 9.43847 16.6401 9.3182L17.423 6.15618L15.4745 5.66675L14.6754 8.89198C14.2512 8.79465 13.8347 8.69844 13.4304 8.5972L13.4327 8.58713L10.7439 7.91087L10.2252 10.0084C10.2252 10.0084 11.6718 10.3424 11.6412 10.3631C12.4309 10.5616 12.5736 11.088 12.5497 11.5053L11.6401 15.1808C11.6946 15.1948 11.7651 15.2149 11.8428 15.2462L11.7768 15.2296L11.7768 15.2296C11.7315 15.2182 11.6847 15.2064 11.6368 15.1948L10.3618 20.3436C10.2652 20.5853 10.0203 20.9477 9.46835 20.8101C9.48779 20.8386 8.05123 20.4538 8.05123 20.4538L7.08334 22.7018L9.62051 23.3389C9.90387 23.4105 10.1838 23.484 10.4609 23.5568C10.6453 23.6052 10.8284 23.6533 11.0104 23.7003L10.2036 26.9636L12.151 27.453L12.9501 24.2244C13.4821 24.3698 13.9985 24.5041 14.5038 24.6305L13.7075 27.844L15.6572 28.3334L16.464 25.0763C19.7886 25.71 22.2886 25.4544 23.3409 22.4255C24.1888 19.9867 23.2987 18.58 21.5495 17.6626C22.8234 17.3667 23.7829 16.5227 24.0389 14.7792ZM19.5843 21.0713C19.0315 23.3088 15.5546 22.3838 13.9638 21.9605L13.9635 21.9604C13.8205 21.9224 13.6927 21.8884 13.5837 21.8611L14.6543 17.5379C14.7872 17.5713 14.9495 17.608 15.1333 17.6495C16.7787 18.0214 20.1507 18.7836 19.5843 21.0713ZM15.4639 15.6433C16.7903 15.9998 19.6834 16.7775 20.1873 14.7439C20.702 12.6639 17.8901 12.0368 16.5168 11.7306C16.3623 11.6962 16.226 11.6658 16.1148 11.6378L15.1441 15.5589C15.2358 15.5819 15.3434 15.6109 15.4639 15.6433Z" fill="white"/>
</svg>
