<?xml version="1.0" standalone="no"?>
<!DOCTYPE svg PUBLIC "-//W3C//DTD SVG 1.1//EN" "http://www.w3.org/Graphics/SVG/1.1/DTD/svg11.dtd" >
<svg xmlns="http://www.w3.org/2000/svg">
<metadata>Generated by IcoMoon</metadata>
<defs>
<font id="icomoon" horiz-adv-x="1024">
<font-face units-per-em="1024" ascent="960" descent="-64" />
<missing-glyph horiz-adv-x="1024" />
<glyph unicode="&#x20;" horiz-adv-x="512" d="" />
<glyph unicode="&#xe900;" glyph-name="letter" d="M870.4 857.6h-716.8c-40.737 0-79.806-16.183-108.612-44.988s-44.988-67.874-44.988-108.612v-512c0-40.735 16.183-79.805 44.988-108.611s67.874-44.989 108.612-44.989h716.8c40.735 0 79.805 16.184 108.611 44.989s44.989 67.876 44.989 108.611v512c0 40.737-16.184 79.806-44.989 108.612s-67.876 44.988-108.611 44.988zM849.408 755.2l-301.056-301.056c-4.762-4.799-10.424-8.608-16.66-11.207-6.241-2.599-12.933-3.938-19.692-3.938s-13.451 1.338-19.69 3.938c-6.239 2.599-11.902 6.408-16.662 11.207l-301.056 301.056h674.816zM921.6 192c0-13.578-5.396-26.604-14.996-36.204s-22.625-14.996-36.204-14.996h-716.8c-13.579 0-26.602 5.396-36.204 14.996s-14.996 22.625-14.996 36.204v491.008l301.056-301.056c28.8-28.764 67.84-44.923 108.544-44.923s79.744 16.159 108.544 44.923l301.056 301.056v-491.008z" />
<glyph unicode="&#xe901;" glyph-name="jackdaw-s" d="M941.466 754.554c-5.946 5.998-13.024 10.76-20.826 14.009-7.795 3.249-16.166 4.922-24.614 4.922s-16.813-1.673-24.608-4.922c-7.802-3.249-14.88-8.011-20.832-14.009l-476.797-477.44-200.32 200.96c-6.177 5.967-13.469 10.659-21.46 13.808s-16.524 4.694-25.111 4.545c-8.588-0.148-17.062-1.987-24.939-5.411s-15.002-8.365-20.97-14.543c-5.967-6.177-10.659-13.469-13.809-21.46s-4.693-16.524-4.545-25.111c0.149-8.588 1.987-17.062 5.411-24.939s8.365-15.003 14.543-20.97l245.76-245.76c5.949-5.997 13.028-10.758 20.827-14.010s16.164-4.922 24.613-4.922c8.449 0 16.814 1.67 24.613 4.922s14.877 8.013 20.827 14.010l522.237 522.239c6.496 5.994 11.686 13.267 15.232 21.363s5.376 16.838 5.376 25.677c0 8.839-1.83 17.581-5.376 25.677s-8.736 15.37-15.232 21.363z" />
<glyph unicode="&#xe902;" glyph-name="square-cross" d="M701.952 637.952c-4.762 4.799-10.424 8.608-16.66 11.207-6.241 2.599-12.933 3.938-19.692 3.938s-13.45-1.338-19.692-3.938c-6.236-2.599-11.899-6.408-16.66-11.207l-117.248-117.76-117.248 117.76c-9.641 9.641-22.717 15.057-36.352 15.057s-26.711-5.416-36.352-15.057c-9.641-9.641-15.057-22.717-15.057-36.352s5.416-26.711 15.057-36.352l117.76-117.248-117.76-117.248c-4.799-4.762-8.608-10.424-11.207-16.66-2.599-6.241-3.938-12.933-3.938-19.692s1.338-13.45 3.938-19.692c2.599-6.236 6.408-11.899 11.207-16.66 4.76-4.797 10.422-8.607 16.662-11.208s12.932-3.937 19.69-3.937c6.759 0 13.451 1.336 19.69 3.937s11.902 6.41 16.662 11.208l117.248 117.76 117.248-117.76c4.762-4.797 10.424-8.607 16.66-11.208 6.241-2.601 12.933-3.937 19.692-3.937s13.45 1.336 19.692 3.937c6.236 2.601 11.899 6.41 16.66 11.208 4.797 4.762 8.607 10.424 11.208 16.66 2.601 6.241 3.937 12.933 3.937 19.692s-1.336 13.45-3.937 19.692c-2.601 6.236-6.41 11.899-11.208 16.66l-117.76 117.248 117.76 117.248c4.797 4.76 8.607 10.422 11.208 16.662s3.937 12.932 3.937 19.69c0 6.759-1.336 13.451-3.937 19.69s-6.41 11.902-11.208 16.662zM870.4 960h-716.8c-40.737 0-79.806-16.183-108.612-44.988s-44.988-67.874-44.988-108.612v-716.8c0-40.735 16.183-79.805 44.988-108.611s67.874-44.989 108.612-44.989h716.8c40.735 0 79.805 16.184 108.611 44.989s44.989 67.876 44.989 108.611v716.8c0 40.737-16.184 79.806-44.989 108.612s-67.876 44.988-108.611 44.988zM921.6 89.6c0-13.578-5.396-26.604-14.996-36.204s-22.625-14.996-36.204-14.996h-716.8c-13.579 0-26.602 5.396-36.204 14.996s-14.996 22.625-14.996 36.204v716.8c0 13.579 5.394 26.602 14.996 36.204s22.625 14.996 36.204 14.996h716.8c13.578 0 26.604-5.394 36.204-14.996s14.996-22.625 14.996-36.204v-716.8z" />
<glyph unicode="&#xe903;" glyph-name="square-jackdaw" d="M420.352 307.2c4.76-4.797 10.422-8.607 16.662-11.208s12.932-3.937 19.69-3.937c6.759 0 13.451 1.336 19.69 3.937s11.902 6.41 16.662 11.208l208.896 208.896c9.641 9.641 15.058 22.717 15.058 36.352s-5.417 26.711-15.058 36.352c-9.641 9.641-22.717 15.057-36.352 15.057s-26.711-5.416-36.352-15.057l-172.544-173.056-61.952 62.464c-9.641 9.641-22.717 15.057-36.352 15.057s-26.711-5.416-36.352-15.057c-9.641-9.641-15.057-22.717-15.057-36.352s5.416-26.711 15.057-36.352l98.304-98.304zM972.8 960h-921.6c-13.579 0-26.602-5.394-36.204-14.996s-14.996-22.625-14.996-36.204v-921.6c0-13.578 5.394-26.604 14.996-36.204s22.625-14.996 36.204-14.996h921.6c13.578 0 26.604 5.396 36.204 14.996s14.996 22.625 14.996 36.204v921.6c0 13.579-5.396 26.602-14.996 36.204s-22.625 14.996-36.204 14.996zM921.6 38.4h-819.2v819.2h819.2v-819.2z" />
<glyph unicode="&#xe904;" glyph-name="document" d="M921.6 604.672c-0.532 4.704-1.562 9.337-3.072 13.824v4.608c-2.463 5.264-5.745 10.103-9.728 14.336l-307.2 307.2c-4.232 3.983-9.072 7.266-14.336 9.728-1.528 0.217-3.080 0.217-4.608 0-5.201 2.983-10.946 4.898-16.896 5.632h-309.76c-40.737 0-79.806-16.183-108.612-44.988s-44.988-67.874-44.988-108.612v-716.8c0-40.735 16.183-79.805 44.988-108.611s67.874-44.989 108.612-44.989h512c40.735 0 79.805 16.184 108.611 44.989s44.989 67.876 44.989 108.611v512c0 0 0 0 0 3.072zM614.4 785.408l132.608-132.608h-81.408c-13.578 0-26.604 5.394-36.204 14.996s-14.996 22.625-14.996 36.204v81.408zM819.2 89.6c0-13.578-5.396-26.604-14.996-36.204s-22.625-14.996-36.204-14.996h-512c-13.579 0-26.602 5.396-36.204 14.996s-14.996 22.625-14.996 36.204v716.8c0 13.579 5.394 26.602 14.996 36.204s22.625 14.996 36.204 14.996h256v-153.6c0-40.737 16.183-79.806 44.988-108.612s67.877-44.988 108.612-44.988h153.6v-460.8zM614.4 345.6h-51.2v51.2c0 13.578-5.394 26.604-14.996 36.204s-22.625 14.996-36.204 14.996c-13.579 0-26.602-5.396-36.204-14.996s-14.996-22.625-14.996-36.204v-51.2h-51.2c-13.579 0-26.602-5.396-36.204-14.996s-14.996-22.625-14.996-36.204c0-13.578 5.394-26.604 14.996-36.204s22.625-14.996 36.204-14.996h51.2v-51.2c0-13.578 5.394-26.604 14.996-36.204s22.625-14.996 36.204-14.996c13.579 0 26.602 5.396 36.204 14.996s14.996 22.625 14.996 36.204v51.2h51.2c13.578 0 26.604 5.396 36.204 14.996s14.996 22.625 14.996 36.204c0 13.578-5.396 26.604-14.996 36.204s-22.625 14.996-36.204 14.996z" />
<glyph unicode="&#xe905;" glyph-name="lock" d="M512 396.8c-15.588 0.184-30.857-4.413-43.753-13.174s-22.799-21.258-28.377-35.814c-5.577-14.556-6.561-30.474-2.819-45.609 3.742-15.13 12.030-28.754 23.749-39.035v-71.168c0-13.578 5.394-26.604 14.996-36.204s22.625-14.996 36.204-14.996c13.579 0 26.602 5.396 36.204 14.996s14.996 22.625 14.996 36.204v71.168c11.719 10.281 20.007 23.905 23.749 39.035 3.742 15.135 2.758 31.053-2.819 45.609s-15.481 27.054-28.377 35.814c-12.896 8.76-28.166 13.358-43.753 13.174zM768 601.6v102.4c0 67.895-26.972 133.010-74.982 181.019-48.005 48.010-113.122 74.981-181.018 74.981s-133.010-26.971-181.019-74.981c-48.010-48.009-74.981-113.124-74.981-181.019v-102.4c-40.737 0-79.806-16.183-108.612-44.988s-44.988-67.874-44.988-108.612v-358.4c0-40.735 16.183-79.805 44.988-108.611s67.874-44.989 108.612-44.989h512c40.735 0 79.805 16.184 108.611 44.989s44.989 67.876 44.989 108.611v358.4c0 40.737-16.184 79.806-44.989 108.612s-67.876 44.988-108.611 44.988zM358.4 704c0 40.737 16.183 79.806 44.988 108.612s67.874 44.988 108.612 44.988c40.737 0 79.806-16.183 108.611-44.988s44.989-67.874 44.989-108.612v-102.4h-307.2v102.4zM819.2 89.6c0-13.578-5.396-26.604-14.996-36.204s-22.625-14.996-36.204-14.996h-512c-13.579 0-26.602 5.396-36.204 14.996s-14.996 22.625-14.996 36.204v358.4c0 13.579 5.394 26.602 14.996 36.204s22.625 14.996 36.204 14.996h512c13.578 0 26.604-5.394 36.204-14.996s14.996-22.625 14.996-36.204v-358.4z" />
<glyph unicode="&#xe906;" glyph-name="human" d="M684.707 414.948c45.633 35.901 78.941 85.134 95.288 140.848 16.351 55.714 14.927 115.139-4.068 170.006-19 54.868-54.626 102.45-101.921 136.127-47.299 33.677-103.922 51.775-161.983 51.775-58.064 0-114.683-18.097-161.982-51.775s-82.924-81.26-101.921-136.127c-18.997-54.868-20.419-114.292-4.070-170.006s49.657-104.947 95.289-140.848c-78.193-31.33-146.419-83.288-197.404-150.337-50.986-67.053-82.82-146.683-92.109-230.405-0.672-6.111-0.134-12.297 1.584-18.204 1.718-5.902 4.582-11.413 8.429-16.207 7.769-9.691 19.068-15.9 31.413-17.254 12.345-1.359 24.723 2.243 34.412 10.012s15.895 19.070 17.253 31.414c10.22 90.987 53.605 175.020 121.866 236.041s156.611 94.753 248.171 94.753c91.56 0 179.907-33.731 248.171-94.753 68.259-61.021 111.644-145.054 121.865-236.041 1.266-11.436 6.721-22.002 15.318-29.649 8.597-7.652 19.721-11.846 31.227-11.776h5.12c12.2 1.401 23.352 7.573 31.023 17.161 7.675 9.593 11.245 21.825 9.937 34.039-9.332 83.959-41.337 163.793-92.588 230.949-51.247 67.156-119.803 119.096-198.321 150.258zM512.023 447.995c-36.824 0-72.82 10.92-103.438 31.376s-54.481 49.536-68.572 83.556c-14.092 34.021-17.779 71.455-10.595 107.571s24.916 69.29 50.954 95.328c26.038 26.038 59.212 43.77 95.328 50.954s73.55 3.496 107.57-10.595c34.020-14.092 63.097-37.955 83.558-68.572 20.457-30.618 31.376-66.614 31.376-103.437 0-49.379-19.614-96.735-54.533-131.651-34.914-34.916-82.269-54.53-131.649-54.53z" />
<glyph unicode="&#xe907;" glyph-name="check" d="M560.762 252.948h-292.571c-12.933 0-25.335-5.135-34.48-14.282-9.144-9.143-14.282-21.548-14.282-34.48s5.138-25.332 14.282-34.48c9.145-9.143 21.547-14.282 34.48-14.282h292.571c12.932 0 25.337 5.14 34.48 14.282 9.148 9.148 14.282 21.548 14.282 34.48s-5.135 25.337-14.282 34.48c-9.143 9.148-21.548 14.282-34.48 14.282zM365.715 545.52h97.524c12.932 0 25.335 5.138 34.48 14.282s14.282 21.547 14.282 34.48c0 12.933-5.137 25.335-14.282 34.48s-21.547 14.282-34.48 14.282h-97.524c-12.933 0-25.335-5.138-34.48-14.282s-14.282-21.547-14.282-34.48c0-12.932 5.138-25.335 14.282-34.48s21.547-14.282 34.48-14.282zM950.857 447.995h-146.286v438.859c0.034 8.592-2.204 17.041-6.485 24.491s-10.455 13.636-17.896 17.932c-7.412 4.28-15.823 6.533-24.381 6.533s-16.969-2.253-24.381-6.533l-146.286-83.871-146.285 83.871c-7.413 4.28-15.822 6.533-24.381 6.533s-16.968-2.253-24.381-6.533l-146.286-83.871-146.286 83.871c-7.413 4.28-15.822 6.533-24.381 6.533s-16.968-2.253-24.381-6.533c-7.441-4.296-13.615-10.482-17.897-17.932s-6.518-15.899-6.484-24.491v-780.192c0-38.795 15.412-76.005 42.846-103.439s64.642-42.847 103.44-42.847h682.666c38.8 0 76.005 15.414 103.439 42.847s42.847 64.644 42.847 103.439v292.571c0 12.932-5.135 25.337-14.282 34.48-9.143 9.148-21.548 14.282-34.48 14.282zM170.667 57.9c-12.933 0-25.335 5.14-34.48 14.282-9.145 9.148-14.282 21.548-14.282 34.48v695.834l97.524-55.589c7.526-3.931 15.891-5.984 24.381-5.984s16.855 2.053 24.381 5.984l146.286 83.87 146.285-83.87c7.524-3.931 15.892-5.984 24.381-5.984s16.857 2.053 24.381 5.984l97.524 55.589v-695.834c0.132-16.633 3.101-33.124 8.777-48.762h-545.158zM902.095 106.662c0-12.932-5.135-25.332-14.282-34.48-9.143-9.143-21.548-14.282-34.48-14.282s-25.337 5.14-34.48 14.282c-9.143 9.148-14.282 21.548-14.282 34.48v243.81h97.524v-243.81zM560.762 447.995h-292.571c-12.933 0-25.335-5.135-34.48-14.282-9.144-9.143-14.282-21.548-14.282-34.48s5.138-25.332 14.282-34.48c9.145-9.143 21.547-14.282 34.48-14.282h292.571c12.932 0 25.337 5.14 34.48 14.282 9.148 9.148 14.282 21.548 14.282 34.48s-5.135 25.337-14.282 34.48c-9.143 9.148-21.548 14.282-34.48 14.282z" />
<glyph unicode="&#xe908;" glyph-name="human-circle" d="M511.979 935.619c-94.575-0.18-187.057-27.858-266.18-79.664s-141.474-125.503-179.458-212.116c-37.983-86.612-49.96-182.4-34.471-275.701 15.489-93.296 57.776-180.078 121.708-249.768 45.662-49.493 101.081-88.995 162.764-116.014s128.295-40.965 195.636-40.965c67.342 0 133.951 13.946 195.635 40.965s117.102 66.521 162.767 116.014c63.932 69.691 106.218 156.472 121.705 249.768 15.492 93.301 3.516 189.089-34.47 275.701-37.981 86.612-100.332 160.31-179.458 212.116-79.121 51.806-171.603 79.485-266.179 79.664zM511.979 57.905c-101.012 0.151-198.026 39.483-270.629 109.714 22.042 53.662 59.54 99.557 107.727 131.857s104.89 49.547 162.901 49.547c58.014 0 114.714-17.247 162.901-49.547s85.684-78.195 107.73-131.857c-72.606-70.232-169.618-109.563-270.631-109.714zM414.455 545.524c0 19.288 5.72 38.144 16.436 54.181s25.947 28.537 43.767 35.919c17.821 7.381 37.43 9.313 56.345 5.55 18.92-3.763 36.298-13.051 49.937-26.69s22.928-31.016 26.687-49.934c3.764-18.918 1.833-38.526-5.549-56.347s-19.88-33.051-35.918-43.765c-16.038-10.718-34.894-16.438-54.181-16.438-25.865 0-50.67 10.274-68.96 28.564s-28.564 43.095-28.564 68.96zM848.925 252.952c-43.569 74.518-110.621 132.486-190.659 164.815 24.825 28.15 41.004 62.871 46.587 99.989 5.588 37.119 0.341 75.061-15.102 109.273s-40.433 63.241-71.963 83.604c-31.534 20.363-68.272 31.194-105.81 31.194-37.536 0-74.276-10.831-105.809-31.194s-56.521-49.391-71.965-83.604c-15.444-34.212-20.688-72.154-15.103-109.273s21.762-71.839 46.591-99.989c-80.038-32.329-147.092-90.297-190.659-164.815-34.721 59.143-53.067 126.464-53.15 195.048 0 103.46 41.099 202.682 114.256 275.839s172.379 114.256 275.839 114.256c103.46 0 202.681-41.099 275.838-114.256s114.259-172.379 114.259-275.839c-0.088-68.584-18.432-135.904-53.15-195.048z" />
<glyph unicode="&#xe909;" glyph-name="exit" d="M102.4 448c0-13.578 5.394-26.604 14.996-36.204s22.625-14.996 36.204-14.996h388.608l-117.76-117.248c-4.799-4.762-8.608-10.424-11.207-16.66-2.599-6.241-3.938-12.933-3.938-19.692s1.338-13.45 3.938-19.692c2.599-6.236 6.408-11.899 11.207-16.66 4.76-4.797 10.422-8.607 16.662-11.208s12.932-3.937 19.69-3.937c6.759 0 13.451 1.336 19.69 3.937s11.902 6.41 16.662 11.208l204.8 204.8c4.659 4.869 8.315 10.609 10.752 16.896 5.12 12.467 5.12 26.447 0 38.912-2.437 6.285-6.093 12.027-10.752 16.896l-204.8 204.8c-4.774 4.774-10.441 8.561-16.678 11.144s-12.922 3.913-19.674 3.913c-6.751 0-13.436-1.33-19.674-3.913s-11.905-6.37-16.678-11.144c-4.774-4.774-8.561-10.441-11.144-16.678s-3.913-12.922-3.913-19.674c0-6.751 1.33-13.436 3.913-19.674s6.37-11.905 11.144-16.678l117.76-117.248h-388.608c-13.579 0-26.602-5.394-36.204-14.996s-14.996-22.625-14.996-36.204zM768 960h-512c-40.737 0-79.806-16.183-108.612-44.988s-44.988-67.874-44.988-108.612v-153.6c0-13.579 5.394-26.602 14.996-36.204s22.625-14.996 36.204-14.996c13.579 0 26.602 5.394 36.204 14.996s14.996 22.625 14.996 36.204v153.6c0 13.579 5.394 26.602 14.996 36.204s22.625 14.996 36.204 14.996h512c13.578 0 26.604-5.394 36.204-14.996s14.996-22.625 14.996-36.204v-716.8c0-13.578-5.396-26.604-14.996-36.204s-22.625-14.996-36.204-14.996h-512c-13.579 0-26.602 5.396-36.204 14.996s-14.996 22.625-14.996 36.204v153.6c0 13.578-5.394 26.604-14.996 36.204s-22.625 14.996-36.204 14.996c-13.579 0-26.602-5.396-36.204-14.996s-14.996-22.625-14.996-36.204v-153.6c0-40.735 16.183-79.805 44.988-108.611s67.874-44.989 108.612-44.989h512c40.735 0 79.805 16.184 108.611 44.989s44.989 67.876 44.989 108.611v716.8c0 40.737-16.184 79.806-44.989 108.612s-67.876 44.988-108.611 44.988z" />
<glyph unicode="&#xe90a;" glyph-name="message" d="M341.327 496.762c-9.645 0-19.072-2.86-27.091-8.218s-14.269-12.974-17.959-21.884c-3.691-8.91-4.656-18.714-2.775-28.174s6.526-18.149 13.345-24.966c6.819-6.822 15.508-11.464 24.967-13.346s19.263-0.917 28.173 2.775c8.91 3.691 16.525 9.943 21.884 17.959 5.358 8.021 8.218 17.447 8.218 27.092 0 12.933-5.138 25.335-14.282 34.48s-21.547 14.282-34.48 14.282zM536.376 496.762c-9.645 0-19.076-2.86-27.092-8.218-8.021-5.358-14.268-12.974-17.959-21.884s-4.657-18.714-2.775-28.174c1.882-9.46 6.524-18.149 13.346-24.966 6.817-6.822 15.506-11.464 24.966-13.346s19.261-0.917 28.175 2.775c8.909 3.691 16.525 9.943 21.879 17.959 5.359 8.021 8.221 17.447 8.221 27.092 0 12.933-5.14 25.335-14.282 34.48-9.148 9.144-21.548 14.282-34.48 14.282zM731.424 496.762c-9.645 0-19.076-2.86-27.092-8.218-8.021-5.358-14.268-12.974-17.959-21.884s-4.657-18.714-2.775-28.174c1.882-9.46 6.524-18.149 13.346-24.966 6.817-6.822 15.506-11.464 24.966-13.346s19.261-0.917 28.17 2.775c8.914 3.691 16.53 9.943 21.884 17.959 5.359 8.021 8.221 17.447 8.221 27.092 0 12.933-5.14 25.335-14.282 34.48-9.148 9.144-21.548 14.282-34.48 14.282zM536.376 935.619c-64.037 0-127.445-12.613-186.605-37.118s-112.916-60.423-158.195-105.702c-91.447-91.447-142.82-215.474-142.82-344.799-0.426-112.596 38.561-221.794 110.202-308.663l-97.524-97.524c-6.766-6.856-11.35-15.565-13.172-25.025s-0.802-19.246 2.932-28.126c4.050-8.772 10.615-16.145 18.863-21.182s17.806-7.504 27.461-7.1h438.859c129.321 0 253.352 51.376 344.795 142.819 91.448 91.448 142.824 215.474 142.824 344.8 0 129.324-51.376 253.352-142.824 344.799-91.443 91.446-215.474 142.82-344.795 142.82zM536.376 57.905h-321.342l45.349 45.349c4.607 4.515 8.272 9.904 10.784 15.843 2.511 5.944 3.818 12.327 3.845 18.778-0.183 12.863-5.441 25.132-14.629 34.133-63.85 63.781-103.611 147.724-112.509 237.529-8.899 89.807 13.617 179.921 63.709 254.99s124.663 130.446 211.007 156.699c86.344 26.252 179.118 21.756 262.52-12.724 83.397-34.48 152.264-96.81 194.862-176.371s56.291-171.43 38.751-259.955c-17.54-88.527-65.234-168.229-134.953-225.534s-157.15-88.664-247.394-88.737z" />
<glyph unicode="&#xe90b;" glyph-name="pointer-locality" d="M905.77 558.321c-6.535 68.007-30.571 133.163-69.762 189.123-39.196 55.96-92.211 100.817-153.889 130.203s-129.915 42.299-198.065 37.482c-68.15-4.817-133.892-27.199-190.823-64.968-48.91-32.705-89.97-75.837-120.23-126.296s-48.968-106.995-54.781-165.544c-5.703-58.166 1.614-116.87 21.419-171.859s51.602-104.876 93.083-146.046l246.691-247.156c4.327-4.366 9.475-7.824 15.147-10.189s11.756-3.579 17.9-3.579c6.144 0 12.228 1.215 17.9 3.579s10.82 5.823 15.147 10.189l245.761 247.156c41.481 41.169 73.277 91.057 93.082 146.046s27.122 113.693 21.42 171.859zM726.104 306.046l-214.11-214.109-214.109 214.109c-31.554 31.553-55.724 69.711-70.774 111.718-15.050 42.012-20.605 86.834-16.266 131.248 4.367 45.098 18.7 88.662 41.964 127.542s54.877 72.105 92.552 97.273c49.382 32.803 107.348 50.302 166.633 50.302s117.249-17.498 166.634-50.302c37.562-25.070 69.106-58.148 92.36-96.858 23.259-38.71 37.655-82.090 42.156-127.025 4.478-44.564-1.005-89.566-16.058-131.751-15.057-42.179-39.303-80.491-70.982-112.147zM511.994 727.281c-41.426 0-81.922-12.284-116.366-35.3s-61.291-55.727-77.144-94c-15.853-38.272-20.001-80.387-11.919-121.016s28.030-77.954 57.323-107.245c29.293-29.291 66.614-49.24 107.244-57.325 40.63-8.080 82.745-3.933 121.020 11.92 38.27 15.853 70.982 42.701 93.999 77.144s35.3 74.943 35.3 116.367c-0.126 55.513-22.23 108.717-61.487 147.971-39.252 39.254-92.458 61.361-147.969 61.484zM511.994 401.464c-23.014 0-45.512 6.824-64.648 19.61s-34.051 30.962-42.858 52.224c-8.807 21.261-11.112 44.658-6.622 67.231s15.572 43.306 31.846 59.58c16.274 16.274 37.008 27.356 59.58 31.846s45.969 2.186 67.232-6.622c21.262-8.807 39.438-23.722 52.224-42.858s19.61-41.634 19.61-64.648c0-30.863-12.26-60.457-34.085-82.282-21.821-21.821-51.418-34.081-82.279-34.081z" />
<glyph unicode="&#xe90c;" glyph-name="human-square" d="M655.872 433.664c32.41 34.804 50.668 80.447 51.2 128 0 51.329-20.388 100.556-56.684 136.85s-85.524 56.686-136.852 56.686c-51.329 0-100.556-20.39-136.85-56.686s-56.686-85.521-56.686-136.85c0.535-47.553 18.791-93.196 51.2-128-45.125-22.472-83.957-55.803-113.002-97.004s-47.395-88.975-53.398-139.028c-1.494-13.578 2.468-27.197 11.014-37.852 8.546-10.66 20.975-17.485 34.554-18.98s27.195 2.468 37.853 11.013c10.658 8.545 17.485 20.977 18.979 34.555 6.11 49.608 30.149 95.263 67.589 128.374s85.695 51.389 135.675 51.389c49.981 0 98.237-18.278 135.675-51.389 37.443-33.111 61.481-78.766 67.589-128.374 1.423-13.128 7.864-25.201 17.976-33.69 10.117-8.494 23.117-12.749 36.296-11.878h5.632c13.42 1.546 25.687 8.33 34.13 18.877 8.438 10.552 12.365 24.008 10.926 37.443-5.555 49.787-23.327 97.434-51.732 138.701-28.406 41.262-66.56 74.875-111.084 97.843zM512 470.528c-18.025 0-35.645 5.345-50.633 15.359s-26.668 24.248-33.566 40.901c-6.898 16.653-8.702 34.977-5.186 52.656s12.196 33.917 24.942 46.663c12.746 12.746 28.984 21.426 46.663 24.942s36.002 1.712 52.657-5.186c16.65-6.898 30.884-18.579 40.899-33.567s15.36-32.607 15.36-50.632c0-24.17-9.6-47.352-26.696-64.443-17.091-17.092-40.269-26.693-64.44-26.693zM870.4 960h-716.8c-40.737 0-79.806-16.183-108.612-44.988s-44.988-67.874-44.988-108.612v-716.8c0-40.735 16.183-79.805 44.988-108.611s67.874-44.989 108.612-44.989h716.8c40.735 0 79.805 16.184 108.611 44.989s44.989 67.876 44.989 108.611v716.8c0 40.737-16.184 79.806-44.989 108.612s-67.876 44.988-108.611 44.988zM921.6 89.6c0-13.578-5.396-26.604-14.996-36.204s-22.625-14.996-36.204-14.996h-716.8c-13.579 0-26.602 5.396-36.204 14.996s-14.996 22.625-14.996 36.204v716.8c0 13.579 5.394 26.602 14.996 36.204s22.625 14.996 36.204 14.996h716.8c13.578 0 26.604-5.394 36.204-14.996s14.996-22.625 14.996-36.204v-716.8z" />
<glyph unicode="&#xe90d;" glyph-name="telephone" d="M899.174 399.243c-10.728 0-21.943 3.413-32.67 5.851-21.723 4.788-43.071 11.142-63.878 19.017-22.621 8.231-47.489 7.802-69.812-1.2s-40.531-25.941-51.117-47.562l-10.728-21.943c-47.494 26.424-91.136 59.236-129.707 97.525-38.288 38.57-71.104 82.213-97.524 129.707l20.48 13.653c21.62 10.586 38.561 28.792 47.562 51.118s9.431 47.191 1.2 69.812c-7.743 20.85-14.097 42.189-19.017 63.878-2.438 10.728-4.389 21.943-5.851 33.158-5.921 34.347-23.911 65.451-50.731 87.711s-60.705 34.213-95.555 33.706h-146.286c-21.015 0.197-41.826-4.136-61.015-12.704s-36.308-21.171-50.19-36.949c-13.882-15.779-24.2-34.363-30.254-54.488s-7.7-41.318-4.827-62.137c25.977-204.282 119.273-394.085 265.15-539.435s336.021-237.953 540.396-263.188h18.53c35.957-0.049 70.676 13.141 97.524 37.059 15.428 13.8 27.75 30.715 36.157 49.625 8.402 18.915 12.702 39.395 12.605 60.089v146.286c-0.595 33.87-12.932 66.487-34.899 92.277-21.962 25.79-52.2 43.154-85.543 49.132zM923.555 106.672c-0.010-6.924-1.492-13.765-4.35-20.070s-7.027-11.932-12.229-16.501c-5.432-4.73-11.8-8.26-18.69-10.362-6.89-2.097-14.146-2.721-21.294-1.829-182.618 23.415-352.246 106.959-482.123 237.456s-212.617 300.519-235.165 483.247c-0.776 7.143-0.096 14.369 1.999 21.241s5.562 13.249 10.191 18.744c4.569 5.201 10.194 9.37 16.5 12.229s13.148 4.342 20.071 4.351h146.286c11.34 0.253 22.412-3.456 31.312-10.487s15.071-16.945 17.45-28.035c1.95-13.328 4.389-26.494 7.314-39.497 5.633-25.704 13.13-50.965 22.43-75.581l-68.267-31.695c-5.837-2.678-11.087-6.482-15.45-11.195s-7.751-10.241-9.971-16.267c-2.22-6.026-3.228-12.431-2.966-18.848s1.789-12.718 4.493-18.543c70.178-150.32 191.010-271.157 341.333-341.335 11.874-4.876 25.186-4.876 37.059 0 6.081 2.175 11.669 5.539 16.443 9.889 4.769 4.354 8.631 9.611 11.352 15.467l30.232 68.267c25.21-9.011 50.937-16.506 77.044-22.43 13.005-2.926 26.171-5.364 39.497-7.314 11.088-2.38 21.002-8.548 28.033-17.447s10.742-19.973 10.489-31.315l0.975-152.137z" />
<glyph unicode="&#xe90e;" glyph-name="twitter" d="M1024 765.429c-38.487-16.696-79.186-27.733-120.832-32.768 43.94 26.249 76.867 67.544 92.672 116.224-41.288-24.579-86.487-41.897-133.632-51.2-31.514 34.172-73.472 56.919-119.306 64.673-45.829 7.754-92.943 0.076-133.939-21.829-41.001-21.905-73.569-56.798-92.6-99.208-19.028-42.409-23.445-89.935-12.554-135.125-83.485 4.222-165.149 25.961-239.685 63.802s-140.278 90.94-192.955 155.846c-18.476-32.265-28.185-68.804-28.16-105.984-0.066-34.528 8.408-68.537 24.666-98.998s39.796-56.43 68.518-75.594c-33.383 0.908-66.054 9.866-95.232 26.112v-2.56c0.25-48.378 17.203-95.185 47.99-132.504s73.521-62.857 120.97-72.295c-18.265-5.56-37.229-8.489-56.32-8.704-13.215 0.154-26.398 1.352-39.424 3.584 13.512-41.615 39.661-77.988 74.807-104.049s77.543-40.52 121.289-41.359c-73.871-58.127-165.075-89.851-259.072-90.112-17.114-0.056-34.215 0.968-51.2 3.072 95.971-61.967 207.811-94.858 322.048-94.72 78.832-0.819 157.038 14.080 230.047 43.822 73.011 29.742 139.361 73.738 195.18 129.413s99.983 121.912 129.915 194.846c29.932 72.934 45.025 151.1 44.411 229.935 0 8.704 0 17.92 0 27.136 40.177 29.962 74.829 66.692 102.4 108.544z" />
<glyph unicode="&#xe90f;" glyph-name="telegram" d="M989.775 893.543c-13.251 11.025-29.245 18.251-46.28 20.908-17.031 2.657-34.467 0.647-50.446-5.817l-834.138-336.773c-17.839-7.339-33.023-19.93-43.539-36.102s-15.864-35.158-15.336-54.44c0.528-19.281 6.907-37.946 18.291-53.52 11.384-15.569 27.235-27.313 45.448-33.666l168.727-58.68 94.045-311.003c1.278-4.152 3.133-8.108 5.51-11.743 0.361-0.559 0.869-0.977 1.253-1.517 2.746-3.835 6.065-7.219 9.841-10.045 1.074-0.819 2.102-1.587 3.25-2.313 4.419-2.932 9.312-5.073 14.463-6.335l0.551-0.047 0.312-0.135c3.097-0.628 6.249-0.95 9.409-0.954 0.304 0 0.574 0.149 0.875 0.154 4.769 0.084 9.497 0.903 14.014 2.434 1.051 0.358 1.952 0.954 2.971 1.387 3.369 1.396 6.561 3.188 9.509 5.334 2.361 1.987 4.723 3.98 7.085 5.967l125.771 138.859 187.592-145.315c16.514-12.861 36.845-19.847 57.772-19.866 21.932 0.028 43.19 7.596 60.202 21.434 17.017 13.838 28.756 33.103 33.257 54.565l151.859 745.5c3.444 16.779 2.257 34.177-3.426 50.335s-15.653 30.465-28.844 41.393zM389.593 320.633c-6.454-6.428-10.866-14.62-12.682-23.543l-14.406-70.004-36.494 120.692 189.22 98.537-125.637-125.682zM776.001 73.77l-221.682 171.729c-9.272 7.168-20.908 10.575-32.582 9.546-11.678-1.024-22.537-6.414-30.417-15.090l-40.281-44.46 14.235 69.185 329.68 329.682c7.871 7.859 12.665 18.276 13.517 29.365s-2.299 22.116-8.876 31.083c-6.577 8.968-16.147 15.284-26.978 17.803-10.836 2.52-22.211 1.076-32.070-4.069l-473.148-246.349-173.352 63.439 836.815 334.774-154.861-746.638z" />
<glyph unicode="&#xe910;" glyph-name="facebook" d="M688.523 773.728h91.672v155.063c-44.383 4.615-88.983 6.894-133.607 6.827-132.632 0-223.33-80.945-223.33-229.181v-127.756h-149.699v-173.591h149.699v-444.709h179.444v444.709h149.211l22.43 173.591h-171.641v110.69c0 51.2 13.653 84.358 85.821 84.358z" />
<glyph unicode="&#xe911;" glyph-name="instagram" d="M772.389 766.903c-11.571 0-22.884-3.432-32.51-9.862-9.621-6.429-17.12-15.568-21.553-26.26-4.428-10.692-5.583-22.457-3.326-33.808s7.826-21.777 16.013-29.96c8.182-8.183 18.608-13.756 29.959-16.014s23.113-1.099 33.807 3.329c10.693 4.429 19.831 11.929 26.263 21.552 6.427 9.622 9.86 20.935 9.86 32.509 0 15.519-6.164 30.402-17.14 41.376-10.971 10.973-25.854 17.138-41.374 17.138zM996.693 648.899c-0.946 40.458-8.524 80.486-22.43 118.491-12.4 32.518-31.695 61.963-56.564 86.309-24.147 24.994-53.658 44.17-86.309 56.076-37.903 14.328-77.98 22.079-118.491 22.918-51.688 2.926-68.267 2.926-200.899 2.926s-149.211 0-200.899-2.926c-40.514-0.839-80.587-8.59-118.491-22.918-32.589-12.027-62.077-31.186-86.309-56.076-24.994-24.146-44.17-53.66-56.076-86.309-14.328-37.905-22.079-77.978-22.918-118.491-2.926-51.688-2.926-68.267-2.926-200.899s0-149.211 2.926-200.899c0.839-40.511 8.59-80.589 22.918-118.491 11.906-32.651 31.082-62.162 56.076-86.309 24.231-24.888 53.72-44.052 86.309-56.076 37.905-14.326 77.978-22.079 118.491-22.918 51.688-2.926 68.267-2.926 200.899-2.926s149.211 0 200.899 2.926c40.511 0.839 80.589 8.592 118.491 22.918 32.651 11.908 62.162 31.081 86.309 56.076 24.976 24.254 44.29 53.726 56.564 86.309 13.907 38.005 21.484 78.034 22.43 118.491 0 51.688 2.926 68.267 2.926 200.899s0 149.211-2.926 200.899zM908.922 252.952c-0.356-30.954-5.959-61.62-16.579-90.697-7.787-21.221-20.29-40.394-36.571-56.076-15.818-16.116-34.953-28.594-56.076-36.571-29.077-10.62-59.743-16.223-90.697-16.579-48.762-2.438-66.804-2.926-195.048-2.926s-146.286 0-195.048 2.926c-32.139-0.6-64.142 4.345-94.598 14.629-20.198 8.382-38.456 20.831-53.638 36.571-16.185 15.667-28.534 34.855-36.084 56.076-11.905 29.491-18.508 60.86-19.505 92.648 0 48.762-2.926 66.804-2.926 195.048s0 146.286 2.926 195.048c0.218 31.644 5.995 63.003 17.067 92.648 8.585 20.582 21.761 38.929 38.522 53.638 14.814 16.766 33.123 30.081 53.638 39.010 29.723 10.726 61.050 16.331 92.648 16.579 48.762 0 66.804 2.926 195.048 2.926s146.286 0 195.048-2.926c30.954-0.355 61.62-5.961 90.697-16.579 22.157-8.224 42.047-21.594 58.027-39.010 15.979-14.979 28.467-33.291 36.571-53.638 10.84-29.693 16.447-61.039 16.579-92.648 2.438-48.762 2.926-66.804 2.926-195.048s-0.488-146.286-2.926-195.048zM512 698.149c-49.454-0.097-97.77-14.849-138.842-42.395s-73.058-66.647-91.917-112.364c-18.858-45.717-23.743-96-14.036-144.489 9.707-48.494 33.57-93.018 68.573-127.956 35.003-34.933 79.576-58.709 128.087-68.32 48.51-9.616 98.784-4.632 144.464 14.316 45.68 18.944 84.719 51.010 112.182 92.136 27.468 41.126 42.125 89.468 42.125 138.923 0.063 32.909-6.378 65.506-18.959 95.917-12.576 30.41-31.042 58.034-54.335 81.282s-50.956 41.661-81.388 54.18c-30.437 12.52-63.044 18.899-95.954 18.77zM512 285.623c-32.115 0-63.509 9.523-90.212 27.365s-47.515 43.203-59.805 72.875c-12.29 29.667-15.505 62.318-9.24 93.815s21.731 60.431 44.439 83.14c22.709 22.708 51.642 38.174 83.14 44.439s64.149 3.050 93.815-9.24c29.672-12.29 55.033-33.103 72.875-59.805s27.365-58.097 27.365-90.212c0-21.324-4.198-42.437-12.361-62.137-8.158-19.705-20.119-37.6-35.196-52.682-15.082-15.077-32.978-27.038-52.682-35.196-19.7-8.163-40.814-12.361-62.137-12.361z" />
<glyph unicode="&#xe912;" glyph-name="jackdaw-circle" d="M680.565 601.6l-230.646-231.131-90.21 90.697c-9.182 9.182-21.636 14.34-34.621 14.34s-25.439-5.159-34.621-14.34c-9.182-9.182-14.34-21.636-14.34-34.621 0-6.432 1.266-12.795 3.727-18.734 2.461-5.944 6.067-11.342 10.614-15.887l124.83-124.83c4.533-4.569 9.926-8.197 15.868-10.674s12.316-3.75 18.753-3.75c6.437 0 12.811 1.273 18.752 3.75s11.336 6.105 15.869 10.674l265.267 265.265c4.545 4.547 8.153 9.944 10.611 15.884 2.462 5.94 3.725 12.307 3.725 18.737s-1.263 12.797-3.725 18.737c-2.458 5.94-6.066 11.338-10.611 15.884-4.549 4.547-9.947 8.153-15.887 10.614s-12.308 3.727-18.734 3.727c-6.432 0-12.8-1.266-18.739-3.727s-11.337-6.067-15.882-10.614zM520.138 935.619c-64.037 0-127.445-12.613-186.606-37.118s-112.915-60.423-158.195-105.702c-91.446-91.447-142.82-215.474-142.82-344.799-0.426-112.596 38.561-221.794 110.202-308.663l-97.524-97.524c-6.766-6.856-11.35-15.565-13.172-25.025s-0.802-19.246 2.932-28.126c4.050-8.772 10.616-16.145 18.863-21.182s17.806-7.504 27.461-7.1h438.859c129.321 0 253.352 51.376 344.795 142.819 91.448 91.448 142.824 215.474 142.824 344.8 0 129.324-51.376 253.352-142.824 344.799-91.443 91.446-215.474 142.82-344.795 142.82zM520.138 57.905h-321.343l45.349 45.349c9.082 9.138 14.179 21.494 14.179 34.377s-5.098 25.239-14.179 34.377c-63.85 63.781-103.611 147.724-112.509 237.529-8.898 89.807 13.617 179.921 63.709 254.99s124.663 130.446 211.006 156.699c86.344 26.252 179.119 21.756 262.521-12.724 83.397-34.48 152.264-96.81 194.862-176.371s56.291-171.43 38.751-259.955c-17.545-88.527-65.234-168.229-134.953-225.534s-157.15-88.664-247.394-88.737z" />
<glyph unicode="&#xe913;" glyph-name="watsap" d="M991.49 713.752c-0.551 21.037-2.18 42.032-4.876 62.903-3.643 18.28-9.713 35.991-18.042 52.663-8.719 18.086-20.421 34.571-34.621 48.762-14.336 14.033-30.788 25.717-48.762 34.621-16.696 8.17-34.406 14.074-52.663 17.554-20.675 3.096-41.521 4.888-62.415 5.364h-531.995c-21.037-0.548-42.032-2.175-62.903-4.876-18.279-3.641-35.991-9.709-52.663-18.042-18.085-8.716-34.571-20.42-48.762-34.621-14.033-14.332-25.717-30.788-34.621-48.762-8.17-16.694-14.074-34.405-17.554-52.663-3.096-20.672-4.888-41.518-5.364-62.415 0-9.265 0-22.43 0-26.331v-479.817c0-5.364 0-17.067 0-25.844 0.548-21.036 2.175-42.033 4.876-62.903 3.641-18.281 9.709-35.991 18.042-52.663 8.716-18.086 20.42-34.572 34.621-48.762 14.332-14.034 30.788-25.717 48.762-34.621 16.695-8.172 34.405-14.073 52.663-17.554 20.672-3.096 41.518-4.886 62.415-5.364h531.995c21.036 0.546 42.028 2.175 62.903 4.876 18.276 3.643 35.986 9.708 52.663 18.042 18.081 8.714 34.567 20.421 48.762 34.621 14.029 14.331 25.717 30.788 34.621 48.762 8.168 16.696 14.073 34.406 17.554 52.663 3.096 20.67 4.886 41.516 5.364 62.415 0 9.265 0 20.968 0 26.331v479.817c0 3.901 0 17.067 0 25.844zM515.087 106.667c-58.563 0.288-116.098 15.384-167.256 43.886l-185.295-48.762 48.762 181.394c-31.446 52.834-48.275 113.084-48.762 174.568 0.194 69.099 20.831 136.596 59.312 193.989s93.085 102.116 156.934 128.536c63.849 26.42 134.086 33.356 201.87 19.933s130.082-46.603 179.044-95.362c48.962-48.759 82.403-110.916 96.105-178.644s7.061-137.997-19.095-201.953c-26.151-63.961-70.646-118.75-127.878-157.467-57.237-38.722-124.645-59.636-193.741-60.119zM515.087 746.91c-51.699-0.591-102.316-14.871-146.7-41.386s-80.949-64.316-105.972-109.557c-25.024-45.241-37.612-96.305-36.484-147.991s15.932-102.156 42.906-146.261l6.827-11.215-29.257-106.789 111.177 30.232 10.728-6.339c44.353-26.127 94.813-40.087 146.288-40.472 77.595 0 152.010 30.822 206.877 85.694 54.867 54.867 85.694 129.282 85.694 206.877s-30.827 152.011-85.694 206.879c-54.867 54.868-129.282 85.692-206.877 85.692l0.488-5.364zM685.753 331.459c-6.388-10.654-14.941-19.846-25.103-26.985-10.167-7.139-21.714-12.069-33.899-14.463-18.213-3.33-36.962-2.155-54.613 3.413-16.613 5.193-32.895 11.381-48.762 18.53-60.285 30.247-111.695 75.61-149.214 131.657-20.388 25.967-32.759 57.317-35.596 90.21-0.29 13.664 2.294 27.236 7.587 39.836s13.174 23.948 23.133 33.307c2.934 3.326 6.533 6 10.565 7.848s8.407 2.829 12.841 2.88h13.653c5.364 0 12.678 0 19.505-15.116s24.869-60.465 27.307-64.853c1.198-2.339 1.823-4.93 1.823-7.558s-0.625-5.219-1.823-7.558c-2.155-5.299-5.116-10.233-8.777-14.629-4.389-5.364-9.265-11.703-13.166-15.604s-8.777-8.777-3.901-17.554c13.268-22.391 29.69-42.754 48.762-60.465 20.77-18.354 44.517-33.026 70.22-43.398 8.777-4.389 14.141-3.901 19.017 0s21.943 25.356 27.794 34.133c5.851 8.777 11.703 7.314 19.505 4.389s51.2-23.893 59.977-28.282c8.777-4.389 14.141-6.339 16.579-10.24 2.111-12.761 0.936-25.854-3.413-38.034v-1.463z" />
<glyph unicode="&#xe914;" glyph-name="telephone-2" d="M891.387 396.8c-11.264 0-23.040 3.584-34.304 6.144-22.789 5.094-45.204 11.771-67.072 19.968-23.752 8.643-49.859 8.192-73.303-1.26-23.439-9.452-42.557-27.238-53.673-49.94l-11.264-23.552c-49.725 28.201-95.657 62.612-136.704 102.4-39.789 41.043-74.198 86.98-102.398 136.704l23.552 10.752c22.7 11.114 40.488 30.232 49.94 53.673s9.901 49.55 1.26 73.303c-8.131 22.066-14.802 44.642-19.968 67.584-2.56 11.264-4.608 23.040-6.144 34.304-6.218 36.064-25.107 68.724-53.267 92.097s-63.74 35.923-100.333 35.391h-154.112c-21.645 0.028-43.052-4.518-62.816-13.342s-37.442-21.725-51.872-37.858c-14.729-16.571-25.697-36.134-32.148-57.346s-8.235-43.568-5.228-65.534c27.832-213.102 125.195-411.069 276.992-563.2 152.133-151.798 350.099-249.16 563.198-276.992 6.646-0.507 13.322-0.507 19.968 0 37.755-0.056 74.209 13.798 102.4 38.912 16.133 14.428 29.036 32.108 37.857 51.871 8.827 19.763 13.373 41.17 13.343 62.817v153.6c-0.276 35.379-12.754 69.576-35.328 96.814-22.579 27.238-53.862 45.85-88.576 52.69zM916.475 89.6c-0.015-7.142-1.526-14.208-4.439-20.731-2.908-6.528-7.153-12.37-12.457-17.157-5.612-5.115-12.288-8.914-19.548-11.126-7.26-2.217-14.925-2.785-22.436-1.674-191.063 24.955-368.626 112.026-505.342 247.808-136.834 136.832-224.664 315.015-249.856 506.88-1.113 7.51-0.541 15.172 1.673 22.433s6.014 13.939 11.127 19.551c4.845 5.368 10.771 9.649 17.39 12.561s13.779 4.39 21.010 4.335h153.6c11.835 0.289 23.406-3.532 32.74-10.813s15.859-17.573 18.46-29.123c0-13.824 4.608-28.16 7.68-41.984 5.917-26.822 13.789-53.175 23.552-78.848l-71.68-33.792c-12.321-5.656-21.895-15.967-26.624-28.672-5.121-12.465-5.121-26.447 0-38.912 73.687-157.839 200.563-284.713 358.398-358.4 12.467-5.12 26.45-5.12 38.912 0 12.708 4.731 23.020 14.305 28.672 26.624l32.256 71.68c26.414-9.631 53.443-17.5 80.896-23.552 13.312-3.072 27.648-5.632 41.472-7.68 11.551-2.601 21.842-9.124 29.123-18.458 7.281-9.339 11.105-20.905 10.813-32.742l4.608-158.208zM614.395 960c-11.776 0-24.064 0-35.84 0-13.578-1.154-26.143-7.655-34.929-18.073s-13.071-23.899-11.919-37.479c1.157-13.579 7.654-26.144 18.074-34.929s23.9-13.073 37.478-11.919h27.136c81.475 0 159.616-32.366 217.226-89.977s89.974-135.749 89.974-217.223c0-9.216 0-17.92 0-27.136-1.132-13.507 3.133-26.913 11.868-37.279s21.222-16.845 34.724-18.017h4.096c12.82-0.052 25.19 4.705 34.668 13.332 9.482 8.626 15.38 20.495 16.532 33.26 0 11.776 0 24.064 0 35.84 0 108.544-43.085 212.65-119.788 289.45s-180.756 120.014-289.3 120.15zM716.795 550.4c0-13.579 5.396-26.602 14.996-36.204 9.605-9.602 22.625-14.996 36.204-14.996s26.604 5.394 36.204 14.996c9.605 9.602 14.996 22.625 14.996 36.204 0 54.317-21.576 106.408-59.981 144.816-38.41 38.407-90.501 59.984-144.819 59.984-13.578 0-26.598-5.394-36.204-14.996-9.6-9.602-14.996-22.625-14.996-36.204s5.396-26.602 14.996-36.204c9.605-9.602 22.625-14.996 36.204-14.996 27.162 0 53.207-10.788 72.407-29.992 19.205-19.204 29.993-45.25 29.993-72.408z" />
<glyph unicode="&#xe915;" glyph-name="mail" d="M960 725.333c11.315 0 22.17 4.495 30.17 12.497s12.497 18.854 12.497 30.17v128c0 11.316-4.497 22.168-12.497 30.17s-18.854 12.497-30.17 12.497h-128c-11.315 0-22.17-4.495-30.17-12.497s-12.497-18.854-12.497-30.17c0-5.658-2.249-11.084-6.246-15.085-4.002-4.001-9.429-6.249-15.087-6.249s-11.085 2.248-15.087 6.249c-3.998 4-6.246 9.427-6.246 15.085 0 11.316-4.497 22.168-12.497 30.17s-18.854 12.497-30.17 12.497h-128c-11.315 0-22.17-4.495-30.17-12.497s-12.497-18.854-12.497-30.17c0-5.658-2.249-11.084-6.246-15.085-4.002-4.001-9.429-6.249-15.087-6.249s-11.085 2.248-15.087 6.249c-3.998 4-6.246 9.427-6.246 15.085 0 11.316-4.497 22.168-12.497 30.17s-18.854 12.497-30.17 12.497h-128c-11.316 0-22.168-4.495-30.17-12.497s-12.497-18.854-12.497-30.17c0-5.658-2.248-11.084-6.249-15.085s-9.427-6.249-15.085-6.249c-5.658 0-11.084 2.248-15.085 6.249s-6.249 9.427-6.249 15.085c0 11.316-4.495 22.168-12.497 30.17s-18.854 12.497-30.17 12.497h-128c-11.316 0-22.168-4.495-30.17-12.497s-12.497-18.854-12.497-30.17v-128c0-11.316 4.495-22.168 12.497-30.17s18.854-12.497 30.17-12.497c5.658 0 11.084-2.248 15.085-6.249s6.249-9.427 6.249-15.085c0-5.658-2.248-11.084-6.249-15.085s-9.427-6.249-15.085-6.249c-11.316 0-22.168-4.495-30.17-12.497s-12.497-18.854-12.497-30.17v-128c0-11.315 4.495-22.17 12.497-30.17s18.854-12.497 30.17-12.497c5.658 0 11.084-2.249 15.085-6.246 4.001-4.002 6.249-9.429 6.249-15.087s-2.248-11.085-6.249-15.087c-4-3.998-9.427-6.246-15.085-6.246-11.316 0-22.168-4.497-30.17-12.497s-12.497-18.854-12.497-30.17v-128c0-11.315 4.495-22.17 12.497-30.17s18.854-12.497 30.17-12.497c5.658 0 11.084-2.249 15.085-6.246 4.001-4.002 6.249-9.429 6.249-15.087s-2.248-11.085-6.249-15.087c-4-3.998-9.427-6.246-15.085-6.246-11.316 0-22.168-4.497-30.17-12.497s-12.497-18.854-12.497-30.17v-128c0-11.315 4.495-22.17 12.497-30.17s18.854-12.497 30.17-12.497h128c11.316 0 22.168 4.497 30.17 12.497s12.497 18.854 12.497 30.17c0 5.658 2.248 11.085 6.249 15.087 4 3.998 9.427 6.246 15.085 6.246s11.084-2.249 15.085-6.246c4.001-4.002 6.249-9.429 6.249-15.087 0-11.315 4.495-22.17 12.497-30.17s18.854-12.497 30.17-12.497h128c11.315 0 22.17 4.497 30.17 12.497s12.497 18.854 12.497 30.17c0 5.658 2.249 11.085 6.246 15.087 4.002 3.998 9.429 6.246 15.087 6.246s11.085-2.249 15.087-6.246c3.998-4.002 6.246-9.429 6.246-15.087 0-11.315 4.497-22.17 12.497-30.17s18.854-12.497 30.17-12.497h128c11.315 0 22.17 4.497 30.17 12.497s12.497 18.854 12.497 30.17c0 5.658 2.249 11.085 6.246 15.087 4.002 3.998 9.429 6.246 15.087 6.246s11.085-2.249 15.087-6.246c3.998-4.002 6.246-9.429 6.246-15.087 0-11.315 4.497-22.17 12.497-30.17s18.854-12.497 30.17-12.497h128c11.315 0 22.17 4.497 30.17 12.497s12.497 18.854 12.497 30.17v128c0 11.315-4.497 22.17-12.497 30.17s-18.854 12.497-30.17 12.497c-5.658 0-11.085 2.249-15.087 6.246-3.998 4.002-6.246 9.429-6.246 15.087s2.249 11.085 6.246 15.087c4.002 3.998 9.429 6.246 15.087 6.246 11.315 0 22.17 4.497 30.17 12.497s12.497 18.854 12.497 30.17v128c0 11.315-4.497 22.17-12.497 30.17s-18.854 12.497-30.17 12.497c-5.658 0-11.085 2.249-15.087 6.246-3.998 4.002-6.246 9.429-6.246 15.087s2.249 11.085 6.246 15.087c4.002 3.998 9.429 6.246 15.087 6.246 11.315 0 22.17 4.497 30.17 12.497s12.497 18.854 12.497 30.17v128c0 11.316-4.497 22.168-12.497 30.17s-18.854 12.497-30.17 12.497c-5.658 0-11.085 2.248-15.087 6.249-3.998 4-6.246 9.427-6.246 15.085s2.249 11.084 6.246 15.085c4.002 4.001 9.429 6.249 15.087 6.249zM917.333 801.707c-18.991-8.317-35.145-21.988-46.49-39.34s-17.387-37.635-17.387-58.366c0-20.732 6.042-41.014 17.387-58.366s27.499-31.023 46.49-39.34v-60.587c-18.991-8.317-35.145-21.986-46.49-39.339s-17.387-37.636-17.387-58.368c0-20.732 6.042-41.015 17.387-58.368s27.499-31.023 46.49-39.339v-60.587c-18.991-8.316-35.145-21.986-46.49-39.339s-17.387-37.636-17.387-58.368c0-20.732 6.042-41.015 17.387-58.368s27.499-31.023 46.49-39.339v-51.627h-51.627c-8.316 18.991-21.986 35.145-39.339 46.49s-37.636 17.387-58.368 17.387c-20.732 0-41.015-6.042-58.368-17.387s-31.023-27.499-39.339-46.49h-60.587c-8.316 18.991-21.986 35.145-39.339 46.49s-37.636 17.387-58.368 17.387c-20.732 0-41.015-6.042-58.368-17.387s-31.022-27.499-39.339-46.49h-60.587c-8.317 18.991-21.988 35.145-39.34 46.49s-37.635 17.387-58.366 17.387c-20.732 0-41.014-6.042-58.366-17.387s-31.023-27.499-39.34-46.49h-51.627v51.627c18.99 8.316 35.145 21.986 46.489 39.339s17.385 37.636 17.385 58.368c0 20.732-6.041 41.015-17.385 58.368s-27.499 31.023-46.489 39.339v60.587c18.99 8.316 35.145 21.986 46.489 39.339s17.385 37.636 17.385 58.368c0 20.732-6.041 41.015-17.385 58.368s-27.499 31.022-46.489 39.339v60.587c18.99 8.317 35.145 21.988 46.489 39.34s17.385 37.635 17.385 58.366c0 20.732-6.041 41.014-17.385 58.366s-27.499 31.023-46.489 39.34v51.627h51.627c8.317-18.99 21.988-35.145 39.34-46.489s37.635-17.385 58.366-17.385c20.732 0 41.014 6.041 58.366 17.385s31.023 27.499 39.34 46.489h60.587c8.317-18.99 21.986-35.145 39.339-46.489s37.636-17.385 58.368-17.385c20.732 0 41.015 6.041 58.368 17.385s31.023 27.499 39.339 46.489h60.587c8.316-18.99 21.986-35.145 39.339-46.489s37.636-17.385 58.368-17.385c20.732 0 41.015 6.041 58.368 17.385s31.023 27.499 39.339 46.489h51.627v-51.627zM512 746.667c-79.211 0-155.178-31.467-211.189-87.477s-87.477-131.979-87.477-211.189c0-79.211 31.467-155.179 87.477-211.187 56.011-56.013 131.979-87.479 211.189-87.479 52.454-0.115 103.996 13.73 149.333 40.107 5.099 2.667 9.604 6.34 13.248 10.795 3.644 4.45 6.349 9.596 7.953 15.125 1.604 5.525 2.069 11.319 1.378 17.033-0.695 5.713-2.539 11.226-5.419 16.205-2.876 4.983-6.737 9.331-11.341 12.783s-9.856 5.939-15.445 7.309c-5.589 1.37-11.396 1.591-17.075 0.657s-11.11-3.004-15.966-6.093c-40.67-23.479-87.953-32.887-134.511-26.756-46.562 6.131-89.799 27.452-123.006 60.659s-54.528 76.446-60.658 123.004c-6.129 46.562 3.276 93.845 26.758 134.514s59.727 72.456 103.117 90.426c43.388 17.971 91.49 21.123 136.853 8.968s85.444-38.939 114.031-76.198c28.591-37.258 44.083-82.908 44.083-129.871v-21.333c0-4.651-0.917-9.254-2.697-13.551s-4.386-8.201-7.676-11.49c-3.29-3.29-7.194-5.897-11.49-7.676s-8.9-2.697-13.551-2.697c-9.434 0-18.483 3.716-25.195 10.347-6.707 6.63-10.534 15.637-10.645 25.067v120.747c-0.222 8.743-3.123 17.206-8.316 24.244s-12.42 12.311-20.71 15.104c-8.286 2.793-17.233 2.973-25.626 0.513s-15.825-7.438-21.295-14.262c-20.275 11.114-43.012 16.98-66.133 17.067-37.683 0-73.822-14.969-100.466-41.614s-41.614-62.783-41.614-100.466c0-37.683 14.969-73.822 41.614-100.467s62.783-41.613 100.466-41.613c34.095-0.004 67.017 12.437 92.587 34.987 16.964-16.661 38.455-27.968 61.798-32.503s47.501-2.103 69.47 6.993c21.973 9.101 40.781 24.461 54.080 44.169 13.303 19.708 20.514 42.897 20.732 66.675v21.76c0 79.211-31.467 155.178-87.479 211.189-56.009 56.011-131.977 87.477-211.187 87.477zM512 391.253c-11.221 0-22.195 3.328-31.526 9.562-9.331 6.238-16.606 15.1-20.902 25.468-4.292 10.372-5.419 21.781-3.226 32.789 2.189 11.008 7.59 21.116 15.526 29.056 7.94 7.936 18.048 13.338 29.056 15.526 11.008 2.193 22.417 1.067 32.789-3.226 10.368-4.297 19.23-11.571 25.468-20.902 6.234-9.331 9.562-20.305 9.562-31.526 0.055-7.467-1.374-14.874-4.203-21.781-2.833-6.912-7.010-13.193-12.292-18.47-5.278-5.282-11.558-9.459-18.47-12.292-6.908-2.829-14.315-4.258-21.781-4.203z" />
<glyph unicode="&#xe916;" glyph-name="jackdaw-b" d="M790.527 776.698l-439.296-440.32-168.96 168.96c-9.18 10.719-20.477 19.425-33.181 25.572s-26.542 9.6-40.645 10.145-28.165-1.832-41.305-6.98c-13.14-5.149-25.075-12.957-35.054-22.937-9.979-9.979-17.788-21.914-22.936-35.055-5.148-13.14-7.524-27.203-6.98-41.305s3.999-27.941 10.145-40.645c6.146-12.705 14.853-24.001 25.572-33.181l240.64-241.664c9.568-9.49 20.916-16.999 33.392-22.095s25.836-7.679 39.312-7.601c26.864 0.113 52.607 10.779 71.68 29.696l512 512c9.598 9.519 17.215 20.845 22.414 33.323s7.876 25.863 7.876 39.381c0 13.518-2.677 26.903-7.876 39.381s-12.816 23.804-22.414 33.323c-19.186 19.072-45.139 29.777-72.192 29.777s-53.006-10.705-72.192-29.777z" />
<glyph unicode="&#xe917;" glyph-name="pointer-botom" d="M972.8 345.6c-13.578 0-26.604-5.396-36.204-14.996s-14.996-22.625-14.996-36.204v-204.8c0-13.578-5.396-26.604-14.996-36.204s-22.625-14.996-36.204-14.996h-716.8c-13.579 0-26.602 5.396-36.204 14.996s-14.996 22.625-14.996 36.204v204.8c0 13.578-5.394 26.604-14.996 36.204s-22.625 14.996-36.204 14.996c-13.579 0-26.602-5.396-36.204-14.996s-14.996-22.625-14.996-36.204v-204.8c0-40.735 16.183-79.805 44.988-108.611s67.874-44.989 108.612-44.989h716.8c40.735 0 79.805 16.184 108.611 44.989s44.989 67.876 44.989 108.611v204.8c0 13.578-5.396 26.604-14.996 36.204s-22.625 14.996-36.204 14.996zM475.648 258.048c4.869-4.659 10.611-8.315 16.896-10.752 6.129-2.708 12.755-4.106 19.456-4.106s13.327 1.398 19.456 4.106c6.287 2.437 12.027 6.093 16.896 10.752l204.8 204.8c9.641 9.641 15.058 22.717 15.058 36.352s-5.417 26.711-15.058 36.352c-9.641 9.641-22.717 15.057-36.352 15.057s-26.711-5.416-36.352-15.057l-117.248-117.76v491.008c0 13.579-5.396 26.602-14.996 36.204s-22.625 14.996-36.204 14.996c-13.579 0-26.602-5.394-36.204-14.996s-14.996-22.625-14.996-36.204v-491.008l-117.248 117.76c-4.774 4.774-10.441 8.561-16.678 11.144s-12.922 3.913-19.674 3.913c-6.751 0-13.436-1.33-19.674-3.913s-11.905-6.37-16.678-11.144c-4.774-4.774-8.561-10.441-11.144-16.678s-3.913-12.922-3.913-19.674c0-6.751 1.33-13.436 3.913-19.674s6.37-11.905 11.144-16.678l204.8-204.8z" />
<glyph unicode="&#xe918;" glyph-name="pointer-top" d="M972.8 550.4c-13.578 0-26.604 5.394-36.204 14.996s-14.996 22.625-14.996 36.204v204.8c0 13.579-5.396 26.602-14.996 36.204s-22.625 14.996-36.204 14.996h-716.8c-13.579 0-26.602-5.394-36.204-14.996s-14.996-22.625-14.996-36.204v-204.8c0-13.579-5.394-26.602-14.996-36.204s-22.625-14.996-36.204-14.996c-13.579 0-26.602 5.394-36.204 14.996s-14.996 22.625-14.996 36.204v204.8c0 40.737 16.183 79.806 44.988 108.612s67.874 44.988 108.612 44.988h716.8c40.735 0 79.805-16.183 108.611-44.988s44.989-67.874 44.989-108.612v-204.8c0-13.579-5.396-26.602-14.996-36.204s-22.625-14.996-36.204-14.996zM475.648 637.952c4.869 4.661 10.611 8.315 16.896 10.752 6.129 2.709 12.755 4.108 19.456 4.108s13.327-1.399 19.456-4.108c6.287-2.437 12.027-6.091 16.896-10.752l204.8-204.8c9.641-9.641 15.058-22.717 15.058-36.352s-5.417-26.711-15.058-36.352c-9.641-9.641-22.717-15.058-36.352-15.058s-26.711 5.417-36.352 15.058l-117.248 117.76v-491.008c0-13.578-5.396-26.604-14.996-36.204s-22.625-14.996-36.204-14.996c-13.579 0-26.602 5.396-36.204 14.996s-14.996 22.625-14.996 36.204v491.008l-117.248-117.76c-4.774-4.772-10.441-8.561-16.678-11.146-6.237-2.58-12.922-3.912-19.674-3.912s-13.436 1.331-19.674 3.912c-6.237 2.586-11.905 6.374-16.678 11.146s-8.561 10.44-11.144 16.681c-2.584 6.236-3.913 12.918-3.913 19.671s1.33 13.435 3.913 19.671c2.584 6.241 6.37 11.909 11.144 16.681l204.8 204.8z" />
<glyph unicode="&#xe919;" glyph-name="pointer" d="M948.514 689.498c-15.991 15.893-37.623 24.814-60.16 24.814-22.545 0-44.176-8.921-60.164-24.814l-306.347-302.080-302.080 302.080c-15.988 15.893-37.616 24.814-60.16 24.814s-44.172-8.921-60.16-24.814c-7.998-7.933-14.346-17.371-18.679-27.77s-6.563-21.552-6.563-32.817c0-11.265 2.23-22.419 6.563-32.817s10.68-19.837 18.679-27.769l361.813-361.813c7.933-7.998 17.37-14.346 27.769-18.679s21.553-6.563 32.817-6.563c11.265 0 22.419 2.231 32.817 6.563s19.837 10.68 27.769 18.679l366.084 361.813c7.996 7.933 14.345 17.37 18.671 27.769 4.335 10.399 6.562 21.553 6.562 32.817s-2.227 22.418-6.562 32.817c-4.326 10.399-10.675 19.837-18.671 27.77z" />
</font>
</defs>
</svg>
