<svg width="140" height="50" viewBox="0 0 140 50" fill="none" xmlns="http://www.w3.org/2000/svg">
<path d="M0.311523 6.92788C0.311523 5.85886 0.626349 5.10503 1.256 4.66637C1.88538 4.22829 2.72032 4.00901 3.76081 4.00854C4.44079 4.00061 5.1184 4.0906 5.77297 4.27577L5.79096 4.28111C6.11752 4.37769 6.40422 4.57779 6.60821 4.85153C6.8122 5.12527 6.92255 5.45795 6.92276 5.79988V34.3127H0.311523V6.92788Z" fill="#212121"/>
<path d="M17.5159 26.5823C17.5805 26.9344 17.7283 27.2658 17.947 27.5486C18.2196 27.9007 18.5535 28.2003 18.9326 28.4326C19.4341 28.7388 19.982 28.961 20.5546 29.0905C21.3357 29.2684 22.1354 29.3513 22.9363 29.3372C23.6113 29.3406 24.2851 29.2786 24.9483 29.1522C25.5778 29.0288 26.1253 28.8986 26.5909 28.7616C26.9831 28.6512 27.3672 28.5138 27.7406 28.3504L27.7496 28.3463C27.8954 28.2798 28.0611 28.2726 28.2121 28.3262C28.3631 28.3797 28.4876 28.4898 28.5595 28.6334L30.0483 31.615C30.1194 31.7573 30.1617 31.9124 30.1726 32.0713C30.1836 32.2302 30.163 32.3896 30.1121 32.5404C30.0612 32.6913 29.9809 32.8304 29.876 32.9498C29.7711 33.0692 29.6436 33.1665 29.501 33.236L29.4858 33.2434C28.8671 33.534 28.2291 33.7812 27.5764 33.9836C26.6954 34.2575 25.7968 34.4704 24.8868 34.6209C23.7671 34.8065 22.6338 34.8959 21.499 34.8881C20.0296 34.8992 18.5698 34.6487 17.1874 34.1481C15.8824 33.6772 14.6875 32.9425 13.6765 31.9894C12.6546 31.0111 11.85 29.8271 11.3153 28.5148C10.7405 27.1444 10.453 25.582 10.4529 23.8274C10.4349 22.2768 10.7282 20.7385 11.3153 19.3043C11.8558 17.9842 12.6674 16.7933 13.697 15.8093C14.7314 14.8361 15.9449 14.0749 17.2695 13.5684C18.6849 13.0252 20.1892 12.7533 21.7044 12.7666C23.1826 12.7666 24.5103 12.9653 25.6875 13.3628C26.7731 13.7104 27.7833 14.2615 28.6646 14.9869C29.4376 15.6291 30.0673 16.4277 30.5124 17.3307C30.9287 18.1744 31.1465 19.1029 31.1489 20.0445C31.1637 20.9834 30.9819 21.915 30.6151 22.7788C30.259 23.5877 29.6225 24.273 28.7057 24.8347C27.7882 25.3969 26.5426 25.8287 24.9689 26.13C23.3943 26.432 21.3891 26.5827 18.9531 26.5823H17.5159ZM17.1874 22.306C19.0211 22.306 20.4446 22.2375 21.4579 22.1004C22.4704 21.9636 23.2232 21.7854 23.7164 21.5659C24.2092 21.3468 24.5103 21.1001 24.6198 20.8257C24.7266 20.5647 24.7824 20.2855 24.7841 20.0033C24.7841 19.4277 24.524 18.9275 24.0038 18.5026C23.4835 18.0778 22.7033 17.8654 21.6633 17.8652C20.999 17.8497 20.3397 17.9832 19.7333 18.2558C19.2127 18.4965 18.745 18.839 18.3576 19.2632C17.987 19.6759 17.7009 20.158 17.5159 20.6818C17.3265 21.2038 17.2158 21.7512 17.1874 22.306Z" fill="#212121"/>
<path d="M34.6807 20.867C34.6807 19.5242 34.9202 18.3523 35.3993 17.3513C35.8615 16.372 36.5347 15.5083 37.3703 14.8226C38.2444 14.117 39.2494 13.5929 40.3269 13.2807C41.534 12.928 42.786 12.7549 44.0431 12.7667C45.6857 12.7667 47.1502 13.0408 48.4369 13.5891C49.7233 14.1377 50.7636 14.9052 51.5577 15.8916C52.3812 14.8825 53.4387 14.0918 54.6375 13.5891C55.8963 13.0409 57.3471 12.7668 58.9901 12.7667C60.2336 12.7568 61.4718 12.9299 62.6653 13.2807C63.7427 13.5931 64.7477 14.1172 65.6219 14.8226C66.4571 15.5086 67.1303 16.3723 67.5929 17.3513C68.0716 18.3523 68.3111 19.5242 68.3115 20.867V34.3127H61.7004V22.7584C61.7004 21.3604 61.4129 20.3599 60.838 19.7568C60.2631 19.1541 59.4556 18.8525 58.4153 18.8521C57.3476 18.8521 56.4784 19.2085 55.8077 19.9212C55.1366 20.6344 54.8013 21.772 54.8017 23.3341V34.3127H48.1905V23.3341C48.1905 21.7716 47.862 20.6339 47.205 19.9212C46.5479 19.2087 45.6856 18.8523 44.618 18.8521C43.5773 18.8521 42.7628 19.1537 42.1747 19.7568C41.5857 20.36 41.2915 21.3605 41.2919 22.7584V34.3126H34.6807V20.867Z" fill="#212121"/>
<path d="M84.8801 18.3185C85.9643 18.3219 87.0233 18.6479 87.9232 19.2553C88.8231 19.8628 89.5236 20.7244 89.9362 21.7315C90.3489 22.7386 90.4551 23.8459 90.2416 24.9136C90.028 25.9813 89.5042 26.9615 88.7364 27.7304C87.9685 28.4993 86.991 29.0224 85.9274 29.2337C84.8637 29.4449 83.7616 29.3348 82.7601 28.9173C81.7587 28.4998 80.903 27.7936 80.3009 26.8878C79.6989 25.9821 79.3776 24.9175 79.3775 23.8285C79.3814 22.3654 79.9629 20.9637 80.9945 19.9307C82.026 18.8978 83.4234 18.318 84.8801 18.3185ZM84.8801 12.7676C78.7795 12.7676 73.834 17.7196 73.834 23.8285C73.834 29.9372 78.7795 34.8893 84.8801 34.8893C90.9806 34.8893 95.9261 29.9372 95.9261 23.8285C95.9261 17.7196 90.9806 12.7676 84.8801 12.7676Z" fill="#FDD435"/>
<path d="M106.972 29.3589C110.023 29.3589 112.495 26.8829 112.495 23.8285C112.495 20.7741 110.023 18.2981 106.972 18.2981C103.922 18.2981 101.449 20.7741 101.449 23.8285C101.449 26.8829 103.922 29.3589 106.972 29.3589Z" fill="#FDD435"/>
<path d="M118.019 21.607C118.019 20.182 118.292 18.9141 118.84 17.8036C119.369 16.7155 120.142 15.7655 121.098 15.0281C122.096 14.2679 123.223 13.6966 124.424 13.3422C127.074 12.5747 129.885 12.5747 132.534 13.3422C133.738 13.6909 134.866 14.2627 135.861 15.0281C136.807 15.7705 137.572 16.7197 138.099 17.8036C138.646 18.9138 138.92 20.1816 138.92 21.607V34.3126H132.309V23.1284C132.309 21.6757 131.98 20.5998 131.323 19.9006C130.666 19.2016 129.722 18.8521 128.49 18.852C125.916 18.852 124.63 20.2775 124.63 23.1284V34.3126H118.019V21.607Z" fill="#212121"/>
<path d="M103.462 35.1026L96.8488 37.6442C96.7926 37.6657 96.743 37.7017 96.7051 37.7486C96.6672 37.7954 96.6422 37.8515 96.6328 37.9112C96.6234 37.9709 96.6298 38.032 96.6514 38.0883C96.673 38.1447 96.709 38.1944 96.7558 38.2323L98.1644 39.3744C94.4654 42.5575 89.7517 44.3013 84.8808 44.2884C84.6407 44.2884 84.3982 44.2842 84.1591 44.2757C79.3091 44.106 74.6772 42.2096 71.0911 38.9255C70.9309 38.7775 70.7433 38.6627 70.5389 38.5876C70.3345 38.5125 70.1174 38.4786 69.9 38.4879C69.6826 38.4971 69.4691 38.5493 69.2717 38.6414C69.0744 38.7335 68.897 38.8638 68.7499 39.0248C68.6027 39.1858 68.4885 39.3743 68.4139 39.5797C68.3393 39.785 68.3057 40.0031 68.315 40.2215C68.3243 40.4399 68.3764 40.6543 68.4683 40.8524C68.5602 41.0506 68.69 41.2286 68.8504 41.3763C73.0194 45.1945 78.4043 47.3992 84.0428 47.5965C84.3197 47.6063 84.6017 47.6113 84.8808 47.6113C90.7529 47.6267 96.4205 45.4464 100.78 41.4951L102.261 42.6962C102.308 42.7342 102.364 42.7592 102.424 42.7687C102.483 42.7781 102.544 42.7717 102.6 42.7501C102.656 42.7285 102.706 42.6924 102.744 42.6455C102.782 42.5986 102.807 42.5425 102.816 42.4828L103.924 35.4772C103.933 35.4175 103.927 35.3564 103.905 35.3C103.883 35.2437 103.847 35.194 103.8 35.156C103.754 35.1181 103.698 35.0931 103.638 35.0838C103.579 35.0744 103.518 35.0809 103.462 35.1026Z" fill="#212121"/>
<path d="M104.311 10.1503C100.862 5.25189 95.706 1.83466 89.8655 0.576608C84.0251 -0.681446 77.9272 0.311611 72.7817 3.35875L71.5602 1.88549C71.5216 1.83904 71.4716 1.80358 71.4152 1.78265C71.3587 1.76172 71.2977 1.75605 71.2384 1.76621C71.179 1.77637 71.1234 1.80201 71.077 1.84055C71.0306 1.8791 70.9951 1.92919 70.9741 1.98584L68.5172 8.63829C68.4964 8.69499 68.4909 8.75618 68.5011 8.81573C68.5113 8.87527 68.5369 8.93107 68.5754 8.9775C68.6139 9.02393 68.6639 9.05936 68.7204 9.08023C68.7768 9.10109 68.8378 9.10665 68.897 9.09636L75.8791 7.90163C75.9385 7.89163 75.9941 7.8661 76.0405 7.82761C76.0868 7.78911 76.1222 7.73901 76.1432 7.68237C76.1641 7.62574 76.1698 7.56456 76.1596 7.50502C76.1495 7.44547 76.1239 7.38965 76.0854 7.34321L74.9323 5.95244C79.3457 3.49245 84.508 2.75564 89.429 3.88334C94.35 5.01103 98.6832 7.92383 101.598 12.0631C101.85 12.4241 102.235 12.6697 102.668 12.7457C103.101 12.8217 103.546 12.722 103.906 12.4684C104.266 12.2149 104.51 11.8283 104.586 11.3936C104.662 10.9589 104.563 10.5117 104.311 10.1503Z" fill="#212121"/>
</svg>
